# xmcd CD database file
#
# Track frame offsets:
#	150
#	13917
#	24675
#	38755
#	51037
#	64285
#	80610
#	91542
#	102895
#	116600
#	126902
#	141097
#	153742
#	165812
#	176925
#	188980
#	200575
#	212515
#	225075
#	236057
#
# Disc length: 3315 seconds
#
# Revision: 3
# Processed by: cddbd v1.5.2PL0 Copyright (c) Steve Scherf et al.
# Submitted via: Feurio! 1.68 - http://www.feurio.com
#
DISCID=0b0cf114
DTITLE=Various Artist - Die groﬂe Parade der Country und Western Hits CD2_3
DYEAR=1900
DGENRE=Country
TTITLE0=Dave Dudley - I was Country before Barbara Mandrell
TTITLE1=George Kent - I¥m in a bad mood Tonight
TTITLE2=Barbara Perry - Why can¥t Women have a good Beer drinking Song
TTITLE3=Ferlin Husky - I only Roll' em
TTITLE4=Dave Dudley - I have been known not to go Home
TTITLE5=Bobby Bare - Me and Bobby McGee
TTITLE6=Freddy Quinn - Tom Dooley
TTITLE7=Barbara Perry - I¥ll hold you closer than love
TTITLE8=Billy Grammer - The hour of separation
TTITLE9=Dave Dudley - Been around the horn
TTITLE10=Ronnie Rogers - Dan D. Derby
TTITLE11=Bobby Bare - Rosalie
TTITLE12=Ferlin Husky - I could sing all Night
TTITLE13=Freddy Quinn - Some broken Hearts never mend
TTITLE14=George Kent - Hitting the Bottle, missing you
TTITLE15=Dave Dudley - Sentimental Journey
TTITLE16=Ferlin Husky - Money Greases
TTITLE17=Bobby Bare - The Year that Clayton Delany Died
TTITLE18=Ferlin Husky - The Wings of a Dove
TTITLE19=Dave Dudley - Me and ole C.B.
EXTD=
EXTT0=
EXTT1=
EXTT2=
EXTT3=
EXTT4=
EXTT5=
EXTT6=
EXTT7=
EXTT8=
EXTT9=
EXTT10=
EXTT11=
EXTT12=
EXTT13=
EXTT14=
EXTT15=
EXTT16=
EXTT17=
EXTT18=
EXTT19=
PLAYORDER=
